<svg xmlns="http://www.w3.org/2000/svg" width="400" height="300" viewBox="0 0 400 300" role="img" aria-labelledby="title desc">
  <title id="title">Most used languages</title><desc id="desc">Language percentages by code bytes in original, public, non-archived repositories. This is not a skill ranking.</desc>
  <style>:root{--bg:#fff;--border:#d0d7de;--fg:#385d7a;--muted:#6e8aa1}.label,.title{font-family:-apple-system,BlinkMacSystemFont,"Segoe UI","Microsoft YaHei",sans-serif;fill:var(--fg)}.muted{fill:var(--muted)}@media(prefers-color-scheme:dark){:root{--bg:#0d1117;--border:#30363d;--fg:#c9d1d9;--muted:#8b949e}}</style>
  <rect x="1" y="1" width="398" height="298" rx="8" fill="var(--bg)" stroke="var(--border)"/>
  <text class="title" x="38" y="48" font-size="23" font-weight="700">Most Used Languages</text>
  <clipPath id="bar"><rect x="38" y="67" width="330" height="10" rx="5"/></clipPath><g clip-path="url(#bar)"><rect x="38" y="67" width="124.0" height="10" fill="#A97BFF"/><rect x="161.99253945004705" y="67" width="76.4" height="10" fill="#3572A5"/><rect x="238.41887204793517" y="67" width="46.2" height="10" fill="#e34c26"/><rect x="284.57754971560894" y="67" width="25.0" height="10" fill="#3178C6"/><rect x="309.58176138008326" y="67" width="18.1" height="10" fill="#f1e05a"/><rect x="327.72608187254593" y="67" width="15.2" height="10" fill="#663399"/><rect x="342.97241784292487" y="67" width="13.8" height="10" fill="#b07219"/><rect x="356.77438786724707" y="67" width="11.2" height="10" fill="#41b883"/></g>
  <circle cx="45" cy="107" r="6" fill="#A97BFF"/><text class="label" x="60" y="112" font-size="14">Kotlin 37.6%</text><circle cx="235" cy="107" r="6" fill="#3572A5"/><text class="label" x="250" y="112" font-size="14">Python 23.2%</text><circle cx="45" cy="150" r="6" fill="#e34c26"/><text class="label" x="60" y="155" font-size="14">HTML 14.0%</text><circle cx="235" cy="150" r="6" fill="#3178C6"/><text class="label" x="250" y="155" font-size="14">TypeScript 7.6%</text><circle cx="45" cy="193" r="6" fill="#f1e05a"/><text class="label" x="60" y="198" font-size="14">JavaScript 5.5%</text><circle cx="235" cy="193" r="6" fill="#663399"/><text class="label" x="250" y="198" font-size="14">CSS 4.6%</text><circle cx="45" cy="236" r="6" fill="#b07219"/><text class="label" x="60" y="241" font-size="14">Java 4.2%</text><circle cx="235" cy="236" r="6" fill="#41b883"/><text class="label" x="250" y="241" font-size="14">Vue 3.4%</text>
  <text class="muted" x="38" y="279" font-size="9">BY PUBLIC REPOSITORY BYTES · NOT A SKILL RANKING</text>
</svg>
