<svg xmlns="http://www.w3.org/2000/svg" width="390" height="404" viewBox="0 0 390 404" role="img" aria-labelledby="title desc">
  <title id="title">Hyhyhyyy at a glance mobile</title><desc id="desc">Four dark blocks for study, language, AI and learning.</desc>
  <style>text{font-family:Arial,"Microsoft YaHei",sans-serif}.serif{font-family:Georgia,"Noto Serif SC","Microsoft YaHei",serif}.o{animation:f 5s ease-in-out infinite}@keyframes f{50%{transform:translateY(-6px)}}@media(prefers-reduced-motion:reduce){.o{animation:none}}</style>
  <rect width="390" height="404" rx="10" fill="#0d0d0d"/>
  <g transform="translate(10 10)"><rect width="180" height="187" rx="8" fill="#171717" stroke="#2a2a2a"/><circle class="o" cx="149" cy="35" r="23" fill="#ff8f8f" opacity=".22"/><text x="15" y="28" font-size="8" font-weight="700" fill="#ff8f8f">01 / STUDY</text><text class="serif" x="15" y="82" font-size="20" font-weight="700" fill="#f4f4f4">&#36719;&#20214;&#24037;&#31243;</text><text x="15" y="111" font-size="11" fill="#a8a8a8">Dalian University</text><text x="15" y="129" font-size="11" fill="#a8a8a8">of Technology</text><path d="M15 157h72" stroke="#ff8f8f" stroke-width="3"/></g>
  <g transform="translate(200 10)"><rect width="180" height="187" rx="8" fill="#171717" stroke="#2a2a2a"/><circle class="o" cx="148" cy="147" r="28" fill="#ff8f8f" opacity=".18"/><text x="15" y="28" font-size="8" font-weight="700" fill="#ff8f8f">02 / LANGUAGE</text><text x="15" y="87" font-size="25" font-weight="900" fill="#f4f4f4">IELTS 7.5</text><text x="15" y="119" font-size="16" font-weight="700" fill="#f4f4f4">CET-4 650+</text><path d="M15 157h72" stroke="#ff8f8f" stroke-width="3"/></g>
  <g transform="translate(10 207)"><rect width="180" height="187" rx="8" fill="#171717" stroke="#2a2a2a"/><circle class="o" cx="149" cy="35" r="24" fill="#f4f4f4" opacity=".14"/><text x="15" y="28" font-size="8" font-weight="700" fill="#ff8f8f">03 / BUILD</text><text x="15" y="82" font-size="25" font-weight="900" fill="#f4f4f4">AI Agent</text><text x="15" y="111" font-size="11" fill="#a8a8a8">&#21407;&#22411; &#183; &#33258;&#21160;&#21270; &#183; &#36845;&#20195;</text><text x="15" y="131" font-size="10" fill="#a8a8a8">Make ideas tangible.</text><path d="M15 157h72" stroke="#ff8f8f" stroke-width="3"/></g>
  <g transform="translate(200 207)"><rect width="180" height="187" rx="8" fill="#171717" stroke="#2a2a2a"/><circle class="o" cx="145" cy="145" r="30" fill="#ff8f8f" opacity=".2"/><text x="15" y="28" font-size="8" font-weight="700" fill="#ff8f8f">04 / NOW</text><text x="15" y="80" font-size="21" font-weight="900" fill="#f4f4f4">LLM Training</text><text x="15" y="110" font-size="11" fill="#a8a8a8">&#22823;&#27169;&#22411;&#35757;&#32451;</text><text x="15" y="129" font-size="10" fill="#a8a8a8">Learning in progress.</text><path d="M15 157h72" stroke="#ff8f8f" stroke-width="3"/></g>
</svg>
