<svg xmlns="http://www.w3.org/2000/svg" width="1000" height="245" viewBox="0 0 1000 245" role="img" aria-labelledby="title desc">
  <title id="title">Hyhyhyyy profile overview</title><desc id="desc">A GitHub-inspired overview of education, language, AI Agent and LLM learning.</desc>
  <style>
    :root{--bg:#f6f8fa;--card:#ffffff;--border:#d0d7de;--fg:#1f2328;--muted:#656d76;--link:#0969da;--pill:#eff3f6}
    text{font-family:-apple-system,BlinkMacSystemFont,"Segoe UI","Microsoft YaHei",sans-serif}.bg{fill:var(--bg)}.card{fill:var(--card);stroke:var(--border)}.fg{fill:var(--fg)}.muted{fill:var(--muted)}.link{fill:var(--link)}.pill{fill:var(--pill);stroke:var(--border)}
    .status{transform-box:fill-box;transform-origin:center;animation:pulse 2.8s ease-in-out infinite}@keyframes pulse{50%{opacity:.35;transform:scale(.72)}}@media(prefers-color-scheme:dark){:root{--bg:#0d1117;--card:#0d1117;--border:#30363d;--fg:#e6edf3;--muted:#8b949e;--link:#58a6ff;--pill:#21262d}}@media(prefers-reduced-motion:reduce){.status{animation:none}}
  </style>
  <rect class="bg" x="1" y="1" width="998" height="243" rx="6" stroke="var(--border)"/>
  <g transform="translate(28 24)"><path d="M2 1h12l5 5v13H2zM14 1v5h5M6 10h9M6 14h7" fill="none" stroke="var(--muted)" stroke-width="1.7" stroke-linejoin="round"/><text class="link" x="30" y="16" font-size="15" font-weight="600">Hyhyhyyy</text><text class="muted" x="105" y="16" font-size="15">/ profile-overview</text><rect class="pill" x="240" y="-2" width="47" height="24" rx="12"/><text class="muted" x="251" y="14" font-size="11" font-weight="600">Public</text></g>
  <g transform="translate(930 34)"><circle r="15" fill="#ff5a3c"/><path d="M-9-11l6 2 3-8 3 8 9-2-6 6-7-2-7 4z" fill="#72c45c"/><circle cx="-5" cy="1" r="1.5" fill="#172b39"/><circle cx="5" cy="1" r="1.5" fill="#172b39"/></g>
  <g transform="translate(28 67)">
    <rect class="card" width="222" height="148" rx="6"/><circle cx="25" cy="27" r="6" fill="#ff5a3c"/><text class="link" x="40" y="32" font-size="15" font-weight="600">Software Student</text><text class="muted" x="18" y="62" font-size="12">&#22823;&#36830;&#29702;&#24037;&#22823;&#23398; &#183; &#36719;&#20214;&#23398;&#38498;</text><text class="muted" x="18" y="83" font-size="12">&#22269;&#38469;&#20449;&#24687;&#19982;&#36719;&#20214;&#23398;&#38498;</text><rect class="pill" x="18" y="105" width="43" height="23" rx="12"/><text class="fg" x="29" y="121" font-size="10">DUT</text><rect class="pill" x="69" y="105" width="79" height="23" rx="12"/><text class="fg" x="80" y="121" font-size="10">Sophomore</text>
  </g>
  <g transform="translate(268 67)">
    <rect class="card" width="222" height="148" rx="6"/><circle cx="25" cy="27" r="6" fill="#ffc857"/><text class="link" x="40" y="32" font-size="15" font-weight="600">Language</text><text class="fg" x="18" y="70" font-size="23" font-weight="600">IELTS 7.5</text><text class="muted" x="18" y="93" font-size="12">CET-4 650+</text><rect class="pill" x="18" y="105" width="109" height="23" rx="12"/><text class="fg" x="29" y="121" font-size="10">Communication</text>
  </g>
  <g transform="translate(508 67)">
    <rect class="card" width="222" height="148" rx="6"/><circle cx="25" cy="27" r="6" fill="#48bfe3"/><text class="link" x="40" y="32" font-size="15" font-weight="600">AI Agent</text><text class="muted" x="18" y="64" font-size="12">&#20351;&#29992;&#19982;&#32534;&#20889;&#31616;&#21333; Agent</text><text class="muted" x="18" y="85" font-size="12">&#21407;&#22411;&#12289;&#33258;&#21160;&#21270;&#19982;&#24555;&#36895;&#36845;&#20195;</text><rect class="pill" x="18" y="105" width="57" height="23" rx="12"/><text class="fg" x="29" y="121" font-size="10">Build</text><rect class="pill" x="83" y="105" width="66" height="23" rx="12"/><text class="fg" x="94" y="121" font-size="10">Iterate</text>
  </g>
  <g transform="translate(748 67)">
    <rect class="card" width="222" height="148" rx="6"/><circle class="status" cx="25" cy="27" r="6" fill="#3fb950"/><text class="link" x="40" y="32" font-size="15" font-weight="600">LLM Training</text><text class="muted" x="18" y="64" font-size="12">&#22823;&#27169;&#22411;&#35757;&#32451;&#19982;&#35780;&#27979;</text><text class="muted" x="18" y="85" font-size="12">Learning in progress</text><rect class="pill" x="18" y="105" width="73" height="23" rx="12"/><text class="fg" x="29" y="121" font-size="10">Training</text><rect class="pill" x="99" y="105" width="71" height="23" rx="12"/><text class="fg" x="110" y="121" font-size="10">Growing</text>
  </g>
</svg>
