<svg xmlns="http://www.w3.org/2000/svg" width="390" height="245" viewBox="0 0 390 245" role="img" aria-labelledby="title desc">
  <title id="title">Tomato ripeness contribution heatmap</title><desc id="desc">41 contributions visualized from green to ripe tomato red.</desc>
  <style>:root{--bg:#fff7d1;--border:#172b39;--fg:#172b39;--muted:#65717a}text{font-family:ui-monospace,SFMono-Regular,Consolas,monospace}.fg{fill:var(--fg)}.muted{fill:var(--muted)}.ripe{transform-box:fill-box;transform-origin:center;animation:p 2.8s ease-in-out infinite}@keyframes p{50%{transform:scale(.8);opacity:.72}}@media(prefers-color-scheme:dark){:root{--bg:#0d1117;--border:#30363d;--fg:#f0f6fc;--muted:#8b949e}}@media(prefers-reduced-motion:reduce){.ripe{animation:none}}</style>
  <rect x="1" y="1" width="388" height="243" rx="10" fill="var(--bg)" stroke="var(--border)"/>
  <circle cx="20" cy="26" r="6" fill="#ff4d35"/><text class="fg" x="33" y="31" font-size="10" font-weight="700">TOMATO RIPENESS MATRIX</text><text class="muted" x="250" y="30" font-size="7">RECENT 17 WEEKS</text>
  <rect x="28" y="72" width="14" height="14" rx="4" fill="#d8dee4"><title>2026-03-29: 0 contributions</title></rect><rect x="28" y="90" width="14" height="14" rx="4" fill="#ff4d35"><title>2026-03-30: 17 contributions</title></rect><rect x="28" y="108" width="14" height="14" rx="4" fill="#ff9a3d"><title>2026-03-31: 6 contributions</title></rect><rect x="28" y="126" width="14" height="14" rx="4" fill="#d8dee4"><title>2026-04-01: 0 contributions</title></rect><rect x="28" y="144" width="14" height="14" rx="4" fill="#fff04a"><title>2026-04-02: 4 contributions</title></rect><rect x="28" y="162" width="14" height="14" rx="4" fill="#d8dee4"><title>2026-04-03: 0 contributions</title></rect><rect x="28" y="180" width="14" height="14" rx="4" fill="#d8dee4"><title>2026-04-04: 0 contributions</title></rect><rect x="46" y="72" width="14" height="14" rx="4" fill="#d8dee4"><title>2026-04-05: 0 contributions</title></rect><rect x="46" y="90" width="14" height="14" rx="4" fill="#d8dee4"><title>2026-04-06: 0 contributions</title></rect><rect x="46" y="108" width="14" height="14" rx="4" fill="#d8dee4"><title>2026-04-07: 0 contributions</title></rect><rect x="46" y="126" width="14" height="14" rx="4" fill="#d8dee4"><title>2026-04-08: 0 contributions</title></rect><rect x="46" y="144" width="14" height="14" rx="4" fill="#d8dee4"><title>2026-04-09: 0 contributions</title></rect><rect x="46" y="162" width="14" height="14" rx="4" fill="#d8dee4"><title>2026-04-10: 0 contributions</title></rect><rect x="46" y="180" width="14" height="14" rx="4" fill="#d8dee4"><title>2026-04-11: 0 contributions</title></rect><rect x="64" y="72" width="14" height="14" rx="4" fill="#d8dee4"><title>2026-04-12: 0 contributions</title></rect><rect x="64" y="90" width="14" height="14" rx="4" fill="#d8dee4"><title>2026-04-13: 0 contributions</title></rect><rect x="64" y="108" width="14" height="14" rx="4" fill="#d8dee4"><title>2026-04-14: 0 contributions</title></rect><rect x="64" y="126" width="14" height="14" rx="4" fill="#d8dee4"><title>2026-04-15: 0 contributions</title></rect><rect x="64" y="144" width="14" height="14" rx="4" fill="#d8dee4"><title>2026-04-16: 0 contributions</title></rect><rect x="64" y="162" width="14" height="14" rx="4" fill="#d8dee4"><title>2026-04-17: 0 contributions</title></rect><rect x="64" y="180" width="14" height="14" rx="4" fill="#d8dee4"><title>2026-04-18: 0 contributions</title></rect><rect x="82" y="72" width="14" height="14" rx="4" fill="#ff9a3d"><title>2026-04-19: 6 contributions</title></rect><rect x="82" y="90" width="14" height="14" rx="4" fill="#d8dee4"><title>2026-04-20: 0 contributions</title></rect><rect x="82" y="108" width="14" height="14" rx="4" fill="#d8dee4"><title>2026-04-21: 0 contributions</title></rect><rect x="82" y="126" width="14" height="14" rx="4" fill="#d8dee4"><title>2026-04-22: 0 contributions</title></rect><rect x="82" y="144" width="14" height="14" rx="4" fill="#d8dee4"><title>2026-04-23: 0 contributions</title></rect><rect x="82" y="162" width="14" height="14" rx="4" fill="#d8dee4"><title>2026-04-24: 0 contributions</title></rect><rect x="82" y="180" width="14" height="14" rx="4" fill="#d8dee4"><title>2026-04-25: 0 contributions</title></rect><rect x="100" y="72" width="14" height="14" rx="4" fill="#d8dee4"><title>2026-04-26: 0 contributions</title></rect><rect x="100" y="90" width="14" height="14" rx="4" fill="#d8dee4"><title>2026-04-27: 0 contributions</title></rect><rect x="100" y="108" width="14" height="14" rx="4" fill="#d8dee4"><title>2026-04-28: 0 contributions</title></rect><rect x="100" y="126" width="14" height="14" rx="4" fill="#d8dee4"><title>2026-04-29: 0 contributions</title></rect><rect x="100" y="144" width="14" height="14" rx="4" fill="#d8dee4"><title>2026-04-30: 0 contributions</title></rect><rect x="100" y="162" width="14" height="14" rx="4" fill="#d8dee4"><title>2026-05-01: 0 contributions</title></rect><rect x="100" y="180" width="14" height="14" rx="4" fill="#d8dee4"><title>2026-05-02: 0 contributions</title></rect><rect x="118" y="72" width="14" height="14" rx="4" fill="#d8dee4"><title>2026-05-03: 0 contributions</title></rect><rect x="118" y="90" width="14" height="14" rx="4" fill="#d8dee4"><title>2026-05-04: 0 contributions</title></rect><rect x="118" y="108" width="14" height="14" rx="4" fill="#d8dee4"><title>2026-05-05: 0 contributions</title></rect><rect x="118" y="126" width="14" height="14" rx="4" fill="#d8dee4"><title>2026-05-06: 0 contributions</title></rect><rect x="118" y="144" width="14" height="14" rx="4" fill="#d8dee4"><title>2026-05-07: 0 contributions</title></rect><rect x="118" y="162" width="14" height="14" rx="4" fill="#d8dee4"><title>2026-05-08: 0 contributions</title></rect><rect x="118" y="180" width="14" height="14" rx="4" fill="#d8dee4"><title>2026-05-09: 0 contributions</title></rect><rect x="136" y="72" width="14" height="14" rx="4" fill="#d8dee4"><title>2026-05-10: 0 contributions</title></rect><rect x="136" y="90" width="14" height="14" rx="4" fill="#d8dee4"><title>2026-05-11: 0 contributions</title></rect><rect x="136" y="108" width="14" height="14" rx="4" fill="#d8dee4"><title>2026-05-12: 0 contributions</title></rect><rect x="136" y="126" width="14" height="14" rx="4" fill="#d8dee4"><title>2026-05-13: 0 contributions</title></rect><rect x="136" y="144" width="14" height="14" rx="4" fill="#d8dee4"><title>2026-05-14: 0 contributions</title></rect><rect x="136" y="162" width="14" height="14" rx="4" fill="#d8dee4"><title>2026-05-15: 0 contributions</title></rect><rect x="136" y="180" width="14" height="14" rx="4" fill="#d8dee4"><title>2026-05-16: 0 contributions</title></rect><rect x="154" y="72" width="14" height="14" rx="4" fill="#d8dee4"><title>2026-05-17: 0 contributions</title></rect><rect x="154" y="90" width="14" height="14" rx="4" fill="#d8dee4"><title>2026-05-18: 0 contributions</title></rect><rect x="154" y="108" width="14" height="14" rx="4" fill="#d8dee4"><title>2026-05-19: 0 contributions</title></rect><rect x="154" y="126" width="14" height="14" rx="4" fill="#d8dee4"><title>2026-05-20: 0 contributions</title></rect><rect x="154" y="144" width="14" height="14" rx="4" fill="#d8dee4"><title>2026-05-21: 0 contributions</title></rect><rect x="154" y="162" width="14" height="14" rx="4" fill="#d8dee4"><title>2026-05-22: 0 contributions</title></rect><rect x="154" y="180" width="14" height="14" rx="4" fill="#d8dee4"><title>2026-05-23: 0 contributions</title></rect><rect x="172" y="72" width="14" height="14" rx="4" fill="#d8dee4"><title>2026-05-24: 0 contributions</title></rect><rect x="172" y="90" width="14" height="14" rx="4" fill="#d8dee4"><title>2026-05-25: 0 contributions</title></rect><rect x="172" y="108" width="14" height="14" rx="4" fill="#d8dee4"><title>2026-05-26: 0 contributions</title></rect><rect x="172" y="126" width="14" height="14" rx="4" fill="#d8dee4"><title>2026-05-27: 0 contributions</title></rect><rect x="172" y="144" width="14" height="14" rx="4" fill="#d8dee4"><title>2026-05-28: 0 contributions</title></rect><rect x="172" y="162" width="14" height="14" rx="4" fill="#d8dee4"><title>2026-05-29: 0 contributions</title></rect><rect x="172" y="180" width="14" height="14" rx="4" fill="#d8dee4"><title>2026-05-30: 0 contributions</title></rect><rect x="190" y="72" width="14" height="14" rx="4" fill="#d8dee4"><title>2026-05-31: 0 contributions</title></rect><rect x="190" y="90" width="14" height="14" rx="4" fill="#d8dee4"><title>2026-06-01: 0 contributions</title></rect><rect x="190" y="108" width="14" height="14" rx="4" fill="#d8dee4"><title>2026-06-02: 0 contributions</title></rect><rect x="190" y="126" width="14" height="14" rx="4" fill="#d8dee4"><title>2026-06-03: 0 contributions</title></rect><rect x="190" y="144" width="14" height="14" rx="4" fill="#d8dee4"><title>2026-06-04: 0 contributions</title></rect><rect x="190" y="162" width="14" height="14" rx="4" fill="#d8dee4"><title>2026-06-05: 0 contributions</title></rect><rect x="190" y="180" width="14" height="14" rx="4" fill="#d8dee4"><title>2026-06-06: 0 contributions</title></rect><rect x="208" y="72" width="14" height="14" rx="4" fill="#d8dee4"><title>2026-06-07: 0 contributions</title></rect><rect x="208" y="90" width="14" height="14" rx="4" fill="#d8dee4"><title>2026-06-08: 0 contributions</title></rect><rect x="208" y="108" width="14" height="14" rx="4" fill="#d8dee4"><title>2026-06-09: 0 contributions</title></rect><rect x="208" y="126" width="14" height="14" rx="4" fill="#d8dee4"><title>2026-06-10: 0 contributions</title></rect><rect x="208" y="144" width="14" height="14" rx="4" fill="#d8dee4"><title>2026-06-11: 0 contributions</title></rect><rect x="208" y="162" width="14" height="14" rx="4" fill="#d8dee4"><title>2026-06-12: 0 contributions</title></rect><rect x="208" y="180" width="14" height="14" rx="4" fill="#d8dee4"><title>2026-06-13: 0 contributions</title></rect><rect x="226" y="72" width="14" height="14" rx="4" fill="#d8dee4"><title>2026-06-14: 0 contributions</title></rect><rect x="226" y="90" width="14" height="14" rx="4" fill="#d8dee4"><title>2026-06-15: 0 contributions</title></rect><rect x="226" y="108" width="14" height="14" rx="4" fill="#d8dee4"><title>2026-06-16: 0 contributions</title></rect><rect x="226" y="126" width="14" height="14" rx="4" fill="#d8dee4"><title>2026-06-17: 0 contributions</title></rect><rect x="226" y="144" width="14" height="14" rx="4" fill="#d8dee4"><title>2026-06-18: 0 contributions</title></rect><rect x="226" y="162" width="14" height="14" rx="4" fill="#d8dee4"><title>2026-06-19: 0 contributions</title></rect><rect x="226" y="180" width="14" height="14" rx="4" fill="#d8dee4"><title>2026-06-20: 0 contributions</title></rect><rect x="244" y="72" width="14" height="14" rx="4" fill="#d8dee4"><title>2026-06-21: 0 contributions</title></rect><rect x="244" y="90" width="14" height="14" rx="4" fill="#d8dee4"><title>2026-06-22: 0 contributions</title></rect><rect x="244" y="108" width="14" height="14" rx="4" fill="#d8dee4"><title>2026-06-23: 0 contributions</title></rect><rect x="244" y="126" width="14" height="14" rx="4" fill="#d8dee4"><title>2026-06-24: 0 contributions</title></rect><rect x="244" y="144" width="14" height="14" rx="4" fill="#d8dee4"><title>2026-06-25: 0 contributions</title></rect><rect x="244" y="162" width="14" height="14" rx="4" fill="#d8dee4"><title>2026-06-26: 0 contributions</title></rect><rect x="244" y="180" width="14" height="14" rx="4" fill="#d8dee4"><title>2026-06-27: 0 contributions</title></rect><rect x="262" y="72" width="14" height="14" rx="4" fill="#d8dee4"><title>2026-06-28: 0 contributions</title></rect><rect x="262" y="90" width="14" height="14" rx="4" fill="#d8dee4"><title>2026-06-29: 0 contributions</title></rect><rect x="262" y="108" width="14" height="14" rx="4" fill="#d8dee4"><title>2026-06-30: 0 contributions</title></rect><rect x="262" y="126" width="14" height="14" rx="4" fill="#d8dee4"><title>2026-07-01: 0 contributions</title></rect><rect x="262" y="144" width="14" height="14" rx="4" fill="#d8dee4"><title>2026-07-02: 0 contributions</title></rect><rect x="262" y="162" width="14" height="14" rx="4" fill="#d8dee4"><title>2026-07-03: 0 contributions</title></rect><rect x="262" y="180" width="14" height="14" rx="4" fill="#d8dee4"><title>2026-07-04: 0 contributions</title></rect><rect x="280" y="72" width="14" height="14" rx="4" fill="#d8dee4"><title>2026-07-05: 0 contributions</title></rect><rect x="280" y="90" width="14" height="14" rx="4" fill="#d8dee4"><title>2026-07-06: 0 contributions</title></rect><rect x="280" y="108" width="14" height="14" rx="4" fill="#d8dee4"><title>2026-07-07: 0 contributions</title></rect><rect x="280" y="126" width="14" height="14" rx="4" fill="#d8dee4"><title>2026-07-08: 0 contributions</title></rect><rect x="280" y="144" width="14" height="14" rx="4" fill="#d8dee4"><title>2026-07-09: 0 contributions</title></rect><rect x="280" y="162" width="14" height="14" rx="4" fill="#d8dee4"><title>2026-07-10: 0 contributions</title></rect><rect x="280" y="180" width="14" height="14" rx="4" fill="#d8dee4"><title>2026-07-11: 0 contributions</title></rect><rect x="298" y="72" width="14" height="14" rx="4" fill="#d8dee4"><title>2026-07-12: 0 contributions</title></rect><rect x="298" y="90" width="14" height="14" rx="4" fill="#d8dee4"><title>2026-07-13: 0 contributions</title></rect><rect x="298" y="108" width="14" height="14" rx="4" fill="#d8dee4"><title>2026-07-14: 0 contributions</title></rect><rect x="298" y="126" width="14" height="14" rx="4" fill="#d8dee4"><title>2026-07-15: 0 contributions</title></rect><rect x="298" y="144" width="14" height="14" rx="4" fill="#d8dee4"><title>2026-07-16: 0 contributions</title></rect><rect x="298" y="162" width="14" height="14" rx="4" fill="#d8dee4"><title>2026-07-17: 0 contributions</title></rect><rect x="298" y="180" width="14" height="14" rx="4" fill="#d8dee4"><title>2026-07-18: 0 contributions</title></rect><rect x="316" y="72" width="14" height="14" rx="4" fill="#d8dee4"><title>2026-07-19: 0 contributions</title></rect><rect x="316" y="90" width="14" height="14" rx="4" fill="#d8dee4"><title>2026-07-20: 0 contributions</title></rect><rect x="316" y="108" width="14" height="14" rx="4" fill="#d8dee4"><title>2026-07-21: 0 contributions</title></rect><rect x="316" y="126" width="14" height="14" rx="4" fill="#d8dee4"><title>2026-07-22: 0 contributions</title></rect><rect x="316" y="144" width="14" height="14" rx="4" fill="#d8dee4"><title>2026-07-23: 0 contributions</title></rect><rect x="316" y="162" width="14" height="14" rx="4" fill="#ff4d35"><title>2026-07-24: 8 contributions</title></rect>
  <text class="muted" x="28" y="225" font-size="8">41 CONTRIBUTIONS</text>
  <g transform="translate(235 214)"><text class="muted" x="0" y="10" font-size="7">GROW</text><rect x="36" width="12" height="12" rx="3" fill="#72d56a"/><rect x="52" width="12" height="12" rx="3" fill="#fff04a"/><rect x="68" width="12" height="12" rx="3" fill="#ff9a3d"/><rect class="ripe" x="84" width="12" height="12" rx="3" fill="#ff4d35"/><text class="muted" x="102" y="10" font-size="7">RIPE</text></g>
</svg>
